<?xml version="1.0" encoding="utf-8"?>

<!DOCTYPE svg PUBLIC "-//W3C//DTD SVG 1.1//EN" "http://www.w3.org/Graphics/SVG/1.1/DTD/svg11.dtd">
<!-- Uploaded to: SVG Repo, www.svgrepo.com, Generator: SVG Repo Mixer Tools -->
<svg height="800px" width="800px" version="1.1" id="_x32_" xmlns="http://www.w3.org/2000/svg" xmlns:xlink="http://www.w3.org/1999/xlink" 
	 viewBox="0 0 512 512"  xml:space="preserve">
<style type="text/css">
	.st0{fill:#000000;}
</style>
<g>
	<path class="st0" d="M164.881,236.368c-11.791,0-21.343,9.552-21.343,21.343c0,11.791,9.552,21.343,21.343,21.343
		c11.791,0,21.35-9.552,21.35-21.343C186.231,245.92,176.672,236.368,164.881,236.368z"/>
	<path class="st0" d="M256.007,236.368c-11.791,0-21.35,9.552-21.35,21.343c0,11.791,9.559,21.343,21.35,21.343
		c11.784,0,21.35-9.552,21.35-21.343C277.358,245.92,267.791,236.368,256.007,236.368z"/>
	<path class="st0" d="M347.126,236.368c-11.791,0-21.35,9.552-21.35,21.343c0,11.791,9.559,21.343,21.35,21.343
		c11.791,0,21.35-9.552,21.35-21.343C368.476,245.92,358.917,236.368,347.126,236.368z"/>
	<path class="st0" d="M395.779,134.776H116.228c-21.477,0-38.966,17.481-38.966,38.959v299.299
		c0,21.485,17.489,38.966,38.966,38.966h279.551c21.484,0,38.958-17.481,38.958-38.966V173.735
		C434.738,152.257,417.264,134.776,395.779,134.776z M161.083,487.412l3.798-85.557l3.798,85.557H161.083z M252.195,487.412
		l3.812-85.557l3.798,85.557H252.195z M343.321,487.412l3.805-85.557l3.805,85.557H343.321z M410.15,473.034
		c0,7.93-6.448,14.378-14.37,14.378h-25.22l0.694-99.892c1.573,2.302,4.153,3.854,7.143,3.713c4.584-0.22,8.12-4.11,7.9-8.695
		l3.543-71.052c0-27.947-28.316-29.322-42.714-29.322c-14.399,0-42.714,1.375-42.714,29.322l2.38,71.052
		c-0.212,4.585,3.316,8.475,7.901,8.695c4.007,0.191,7.334-2.559,8.291-6.293l0.705,102.471h-44.245l0.687-99.892
		c1.573,2.302,4.156,3.854,7.146,3.713c4.577-0.22,8.12-4.11,7.908-8.695l3.528-71.052c0-27.947-28.315-29.322-42.707-29.322
		c-14.406,0-42.722,1.375-42.722,29.322l2.381,71.052c-0.213,4.585,3.317,8.475,7.908,8.695c4.007,0.191,7.341-2.565,8.287-6.314
		l0.701,102.492h-44.237l0.683-99.892c1.573,2.302,4.156,3.854,7.15,3.713c4.585-0.22,8.114-4.11,7.901-8.695l3.536-71.052
		c0-27.947-28.308-29.322-42.714-29.322c-14.392,0-42.707,1.375-42.707,29.322l2.374,71.052c-0.22,4.585,3.323,8.475,7.901,8.695
		c4.022,0.191,7.348-2.565,8.294-6.314l0.702,102.492h-25.216c-7.93,0-14.377-6.448-14.377-14.378V173.735
		c0-7.922,6.448-14.371,14.377-14.371h279.551c7.922,0,14.37,6.449,14.37,14.371V473.034z"/>
	<path class="st0" d="M283.926,70.74l29.208-29.209v65.674c0,5.988,4.862,10.842,10.849,10.842c5.994,0,10.856-4.854,10.856-10.842
		V41.531l29.208,29.209c2.126,2.119,4.896,3.182,7.667,3.182c2.778,0,5.563-1.063,7.674-3.182c4.245-4.237,4.245-11.103,0-15.334
		L331.658,7.668L323.984,0l-7.667,7.668l-47.731,47.738c-4.238,4.23-4.238,11.097,0,15.334
		C272.822,74.977,279.696,74.977,283.926,70.74z"/>
	<path class="st0" d="M180.35,114.872c0,0.007,0,0.007,0,0.007l7.668,7.667l7.674-7.667c0,0,0.007,0,0.007-0.007l47.717-47.732
		c4.245-4.237,4.245-11.11,0-15.341c-4.223-4.237-11.097-4.237-15.334,0l-29.209,29.216V15.342c0-5.995-4.862-10.849-10.856-10.849
		c-5.98,0-10.842,4.854-10.842,10.849v65.673L147.96,51.799c-4.23-4.237-11.104-4.237-15.342,0c-4.238,4.23-4.238,11.104,0,15.341
		L180.35,114.872z"/>
</g>
</svg>